# AST/ASF file generated using VICON BodyLanguage
# -----------------------------------------------
:version 1.10
:name VICON
:units
  mass 1.0
  length 0.45
  angle deg
:documentation
   .ast/.asf automatically generated from VICON data using
   VICON BodyBuilder and BodyLanguage model FoxedUp or BRILLIANT.MOD
:root
   order TX TY TZ RX RY RZ
   axis XYZ
   position 0 0 0  
   orientation 0 0 0 
:bonedata
  begin
     id 1 
     name lhipjoint
     direction 0.650112 -0.723553 0.232005 
     length 2.45805 
     axis 0 0 0  XYZ
  end
  begin
     id 2 
     name lfemur
     direction 0.34202 -0.939693 0  
     length 7.00073  
     axis 0 0 20  XYZ
    dof rx ry rz
    limits (-160.0 20.0)
           (-70.0 70.0)
           (-60.0 70.0)
  end
  begin
     id 3 
     name ltibia
     direction 0.34202 -0.939693 0   
     length 7.8748   
     axis 0 0 20   XYZ
    dof rx
    limits (-10.0 170.0)
  end
  begin
     id 4 
     name lfoot
     direction 0.0542825 -0.14914 0.987325   
     length 1.75978   
     axis -90 7.62852e-016 20   XYZ
    dof rx rz
    limits (-45.0 90.0)
           (-70.0 20.0)
  end
  begin
     id 5 
     name ltoes
     direction 1.53509e-011 -4.21906e-011 1   
     length 0.893912   
     axis -90 7.62852e-016 20   XYZ
    dof rx
    limits (-90.0 20.0)
  end
  begin
     id 6 
     name rhipjoint
     direction -0.637897 -0.733345 0.235145   
     length 2.42522  
     axis 0 0 0  XYZ 
  end
  begin
     id 7 
     name rfemur
     direction -0.34202 -0.939693 0   
     length 7.02549   
     axis 0 0 -20   XYZ
    dof rx ry rz
    limits (-160.0 20.0)
           (-70.0 70.0)
           (-70.0 60.0)
  end
  begin
     id 8 
     name rtibia
     direction -0.34202 -0.939693 0   
     length 7.71512   
     axis 0 0 -20   XYZ
    dof rx
    limits (-10.0 170.0)
 end
 begin
     id 9 
     name rfoot
     direction -0.0822618 -0.226012 0.970645   
     length 1.90014  
     axis -90 -7.62852e-016 -20   XYZ
    dof rx rz
    limits (-45.0 90.0)
           (-20.0 70.0)
  end
  begin
     id 10 
     name rtoes
     direction -1.53542e-011 -4.21872e-011 1   
     length 0.957341   
     axis -90 -7.62852e-016 -20   XYZ
    dof rx
    limits (-90.0 20.0)
  end
  begin
     id 11 
     name lowerback
     direction -0.0022947 0.999774 -0.0211557   
     length 1.89909   
     axis 0 0 0   XYZ
    dof rx ry rz
    limits (-20.0 45.0)
           (-30.0 30.0)
           (-30.0 30.0)
  end
  begin
     id 12 
     name upperback
     direction 0.0107737 0.998635 0.0511027   
     length 1.8853   
     axis 0 0 0   XYZ
    dof rx ry rz
    limits (-20.0 45.0)
           (-30.0 30.0)
           (-30.0 30.0)
  end
  begin
     id 13 
     name thorax
     direction 0.011824 0.998136 0.0598754   
     length 1.88911   
     axis 0 0 0   XYZ
    dof rx ry rz
    limits (-20.0 45.0)
           (-30.0 30.0)
           (-30.0 30.0)
  end
  begin
     id 14 
     name lowerneck
     direction -0.0685355 0.990319 0.120714   
     length 1.91222   
     axis 0 0 0   XYZ
    dof rx ry rz
    limits (-20.0 45.0)
           (-30.0 30.0)
           (-30.0 30.0)
  end
  begin
     id 15 
     name upperneck
     direction 0.0886204 0.955665 -0.280805   
     length 1.92526   
     axis 0 0 0   XYZ
    dof rx ry rz
    limits (-20.0 45.0)
           (-30.0 30.0)
           (-30.0 30.0)
  end
  begin
     id 16
     name head
     direction 0.0233423 0.993502 -0.111393  
     length 1.96056  
     axis 0 0 0   XYZ
    dof rx ry rz
    limits (-20.0 45.0)
           (-30.0 30.0)
           (-30.0 30.0)
  end
  begin
     id 17 
     name lclavicle
     direction 0.941873 0.32922 0.0670041  
     length 3.31705  
     axis 0 0 0   XYZ
    dof ry rz
    limits (-20.0 10.0)
           (0.0 20.0)
  end
  begin
     id 18 
     name lhumerus
     direction 1 -4.4898e-011 3.38707e-028   
     length 5.29277   
     axis 180 -30 -90   XYZ
    dof rx ry rz
    limits (-60.0 90.0)
           (-90.0 90.0)
           (-90.0 90.0)
  end
  begin
     id 19
     name lradius
     direction 1 -4.48952e-011 1.63213e-028   
     length 2.85226   
     axis 180 -30 -90   XYZ
    dof rx
    limits (-10.0 170.0)
  end
  begin
     id 20
     name lwrist
     direction 1 -4.49001e-011 1.27856e-027   
     length 1.42613   
     axis -1.61767e-015 90 90   XYZ
    dof ry
    limits (-180.0 0.0)
 end
  begin
     id 21 
     name lhand
     direction 1 -4.48976e-011 2.55931e-027   
     length 0.602097   
     axis -1.63363e-015 90 90   XYZ
    dof rx rz
    limits (-90.0 90.0)
           (-45.0 45.0)
  end
  begin
     id 22 
     name lfingers
     direction 1 -4.48986e-011 5.11684e-027   
     length 0.485426   
     axis -3.26723e-015 90 90   XYZ
    dof rx
    limits (0.0 90.0)
  end
  begin
     id 23
     name lthumb
     direction 0.707107 -6.34915e-011 0.707107   
     length 0.696978   
     axis -90 45 -2.25915e-014   XYZ
    dof rx rz
    limits (-45.0 45.0)
           (-45.0 45.0)
  end
  begin
     id 24 
     name rclavicle
     direction -0.939974 0.327078 0.0973096   
     length 3.10337  
     axis 0 0 0   XYZ 
    dof ry rz
    limits (-10.0 20.0)
           (-20.0 0.0)
  end
  begin
     id 25 
     name rhumerus
     direction -1 -4.48975e-011 1.83745e-027  
     length 5.13304   
     axis 180 30 90   XYZ
    dof rx ry rz
    limits (-90.0 60.0)
           (-90.0 90.0)
           (-90.0 90.0)
  end
  begin
     id 26 
     name rradius
     direction -1 -4.48977e-011 7.1775e-029   
     length 2.74305   
     axis 180 30 90   XYZ
    dof rx
    limits (-10.0 170.0)
  end
  begin
     id 27 
     name rwrist
     direction -1 -4.48977e-011 1.27963e-027   
     length 1.37152   
     axis -1.61767e-015 -90 -90   XYZ
    dof ry
    limits (-180.0 0.0)
  end
  begin
     id 28
     name rhand
     direction -1 -4.4888e-011 2.56782e-027   
     length 0.767976   
     axis -1.63363e-015 -90 -90   XYZ
    dof rx rz
    limits (-90.0 90.0)
           (-45.0 45.0)
  end
  begin
     id 29
     name rfingers
     direction -1 -4.48947e-011 5.12384e-027   
     length 0.619162   
     axis -3.26723e-015 -90 -90   XYZ
    dof rx
    limits (0.0 90.0)
  end
  begin
     id 30
     name rthumb
     direction -0.707107 -6.34857e-011 0.707107   
     length 0.888997   
     axis -90 -45 2.25915e-014   XYZ
    dof rx rz
    limits (-45.0 45.0)
           (-45.0 45.0)
  end
:hierarchy
  begin
    root lhipjoint rhipjoint lowerback
    lhipjoint lfemur
    lfemur ltibia
    ltibia lfoot
    lfoot ltoes
    rhipjoint rfemur
    rfemur rtibia
    rtibia rfoot
    rfoot rtoes
    lowerback upperback
    upperback thorax
    thorax lowerneck lclavicle rclavicle
    lowerneck upperneck
    upperneck head
    lclavicle lhumerus
    lhumerus lradius
    lradius lwrist
    lwrist lhand lthumb
    lhand lfingers
    rclavicle rhumerus
    rhumerus rradius
    rradius rwrist
    rwrist rhand rthumb
    rhand rfingers
  end

#!OML:ASF F:\VICON\USERDATA\INSTALL\rory3\rory3.ASF
:FULLY-SPECIFIED
:DEGREES
246
root 0.564074 17.1539 0.33165 4.85622 29.776 3.04048
lowerback -4.81485 0.555436 -1.53352
upperback -7.11991 0.900998 1.69785
thorax -4.72571 0.609263 2.62181
lowerneck -7.98745 -10.3293 -18.5329
upperneck 22.8181 -15.1622 15.4233
head 11.3792 -7.11311 6.67031
rclavicle 1.53064e-014 1.51076e-014
rhumerus -29.7215 5.82396 -92.6695
rradius 129.989
rwrist 36.3692
rhand 38.6216 10.3821
rfingers 7.12502
rthumb 61.243 -2.02357
lclavicle 1.53064e-014 1.51076e-014
lhumerus -15.7306 -19.7609 103.251
lradius 118.023
lwrist -15.2452
lhand 38.3859 45.231
lfingers 7.12502
lthumb 61.0442 57.8663
rfemur 0.317933 -5.55297 17.9762
rtibia 19.5597
rfoot -21.4857 -26.0211
rtoes -8.82602
lfemur -13.0174 -23.7527 -20.3288
ltibia 25.3089
lfoot -14.2784 -9.78435
ltoes -6.99848
247
root 0.562787 17.1523 0.330061 4.82727 29.7814 3.04005
lowerback -4.75907 0.552542 -1.52218
upperback -7.14308 0.895819 1.66868
thorax -4.7805 0.606108 2.58436
lowerneck -7.9975 -10.2996 -18.5132
upperneck 22.8955 -15.1258 15.4065
head 11.3995 -7.09561 6.66986
rclavicle -7.61345e-014 -4.21423e-014
rhumerus -29.7855 5.87912 -92.7737
rradius 129.979
rwrist 36.3404
rhand 38.6154 10.2888
rfingers 7.12502
rthumb 61.2378 -2.12289
lclavicle -7.61345e-014 -4.21423e-014
lhumerus -15.7767 -19.7935 103.163
lradius 118.012
lwrist -15.1801
lhand 38.1165 45.3649
lfingers 7.12502
lthumb 60.8163 58.2587
rfemur 0.320044 -5.67511 17.9582
rtibia 19.6011
rfoot -21.4051 -25.9674
rtoes -9.22249
lfemur -13.0017 -23.7933 -20.3382
ltibia 25.3327
lfoot -14.3018 -9.76594
ltoes -7.47368
248
root 0.562583 17.1522 0.329271 4.79638 29.8149 3.03962
lowerback -4.72814 0.540788 -1.48225
upperback -7.15645 0.878166 1.63164
thorax -4.80941 0.594613 2.52293
lowerneck -7.98527 -10.2411 -18.466
upperneck 22.9026 -15.0566 15.429
head 11.3828 -7.05884 6.68479
rclavicle 5.02925e-014 1.51076e-014
rhumerus -29.829 5.90806 -92.9129
rradius 129.974
rwrist 36.3376
rhand 38.7198 10.1744
rfingers 7.12502
rthumb 61.3257 -2.13459
lclavicle 5.02925e-014 1.51076e-014
lhumerus -15.7672 -19.771 103.088
lradius 118.007
lwrist -15.1552
lhand 37.9357 45.3066
lfingers 7.12502
lthumb 60.663 58.3715
rfemur 0.325701 -5.73495 17.9474
rtibia 19.6695
rfoot -21.4482 -25.9397
rtoes -9.23065
lfemur -12.9741 -23.8904 -20.3514
ltibia 25.345
lfoot -14.2411 -9.82302
ltoes -6.84041
249
root 0.560186 17.1511 0.327983 4.78275 29.8637 3.0764
lowerback -4.6665 0.529294 -1.50805
upperback -7.16614 0.860751 1.57935
thorax -4.85284 0.586103 2.48226
lowerneck -7.99047 -10.2192 -18.3823
upperneck 22.8987 -15.0369 15.4261
head 11.37 -7.04273 6.67331
rclavicle -2.08724e-014 3.18055e-015
rhumerus -29.8693 5.89084 -93.0394
rradius 130.006
rwrist 36.346
rhand 38.8297 10.1318
rfingers 7.12502
rthumb 61.4181 -2.06819
lclavicle -2.08724e-014 3.18055e-015
lhumerus -15.7428 -19.7521 103.021
lradius 118.006
lwrist -15.1462
lhand 37.7885 45.3598
lfingers 7.12502
lthumb 60.538 58.5626
rfemur 0.335252 -5.7697 17.9211
rtibia 19.7241
rfoot -21.5831 -25.9178
rtoes -8.63286
lfemur -12.9569 -23.963 -20.3917
ltibia 25.36
lfoot -14.2516 -9.77211
ltoes -6.78917
250
root 0.557201 17.1498 0.327029 4.78123 29.8749 3.12587
lowerback -4.62581 0.526548 -1.56643
upperback -7.19015 0.855659 1.52165
thorax -4.90094 0.585563 2.4545
lowerneck -7.87289 -10.1924 -18.3098
upperneck 22.8512 -15.0308 15.4527
head 11.3228 -7.03732 6.67642
rclavicle 1.00983e-013 1.98785e-014
rhumerus -29.9599 5.87186 -93.1811
rradius 130.013
rwrist 36.3483
rhand 38.8529 10.2618
rfingers 7.12502
rthumb 61.4376 -1.91512
lclavicle 1.00983e-013 1.98785e-014
lhumerus -15.7696 -19.7212 102.927
lradius 118.03
lwrist -15.1322
lhand 37.7652 45.4758
lfingers 7.12502
lthumb 60.5182 58.7003
rfemur 0.331549 -5.75885 17.8777
rtibia 19.766
rfoot -21.7704 -25.8725
rtoes -7.7234
lfemur -12.952 -24.0158 -20.4392
ltibia 25.3846
lfoot -14.3808 -9.55915
ltoes -7.79221
251
root 0.555969 17.1489 0.326802 4.76814 29.8409 3.09021
lowerback -4.6166 0.541031 -1.53188
upperback -7.2139 0.873953 1.49527
thorax -4.93109 0.592824 2.4075
lowerneck -7.80501 -10.1685 -18.2458
upperneck 22.8161 -15.0224 15.4856
head 11.2911 -7.02849 6.68222
rclavicle 2.26615e-014 -1.51076e-014
rhumerus -30.0134 5.91332 -93.3091
rradius 129.997
rwrist 36.2796
rhand 38.8334 10.1967
rfingers 7.12502
rthumb 61.4213 -1.99963
lclavicle 2.26615e-014 -1.51076e-014
lhumerus -15.7768 -19.6648 102.826
lradius 118.094
lwrist -15.1005
lhand 37.9658 45.5039
lfingers 7.12502
lthumb 60.6886 58.5405
rfemur 0.30286 -5.7057 17.9031
rtibia 19.7968
rfoot -21.8697 -25.7972
rtoes -7.79288
lfemur -12.989 -24.0551 -20.4011
ltibia 25.4387
lfoot -14.4691 -9.41236
ltoes -8.6826
252
root 0.554253 17.1483 0.325712 4.7451 29.8164 3.0083
lowerback -4.63009 0.556232 -1.45268
upperback -7.20603 0.893501 1.50172
thorax -4.91469 0.598476 2.36995
lowerneck -7.84426 -10.1575 -18.2185
upperneck 22.7994 -15.0026 15.4879
head 11.2862 -7.01518 6.67993
rclavicle 5.96354e-016 1.98785e-014
rhumerus -29.9673 5.98215 -93.3725
rradius 129.973
rwrist 36.1851
rhand 38.755 10.1209
rfingers 7.12502
rthumb 61.3554 -2.1532
lclavicle 5.96354e-016 1.98785e-014
lhumerus -15.7071 -19.6268 102.749
lradius 118.157
lwrist -15.0905
lhand 38.0226 45.4463
lfingers 7.12502
lthumb 60.7367 58.4292
rfemur 0.251103 -5.72362 17.977
rtibia 19.8158
rfoot -21.7818 -25.7545
rtoes -8.273
lfemur -13.0518 -24.031 -20.3116
ltibia 25.5092
lfoot -14.5513 -9.361
ltoes -9.35544
253
root 0.551256 17.147 0.323753 4.70384 29.803 2.8898
lowerback -4.63306 0.560524 -1.3625
upperback -7.20274 0.898888 1.52283
thorax -4.9084 0.59713 2.34133
lowerneck -7.90142 -10.1115 -18.1946
upperneck 22.8606 -14.9521 15.5437
head 11.3132 -6.98177 6.70754
rclavicle -3.18055e-014 -3.18055e-015
rhumerus -29.9556 6.058 -93.4384
rradius 129.972
rwrist 36.1369
rhand 38.7239 10.0734
rfingers 7.12502
rthumb 61.3292 -2.23143
lclavicle -3.18055e-014 -3.18055e-015
lhumerus -15.668 -19.5671 102.68
lradius 118.231
lwrist -15.1006
lhand 38.1897 45.5419
lfingers 7.12502
lthumb 60.8783 58.3659
rfemur 0.201882 -5.76431 18.0956
rtibia 19.8293
rfoot -21.8065 -25.7113
rtoes -8.23978
lfemur -13.126 -23.9981 -20.1784
ltibia 25.5915
lfoot -14.6189 -9.38271
ltoes -9.43814
254
root 0.549602 17.1463 0.321244 4.71738 29.7945 2.84962
lowerback -4.64711 0.564801 -1.31002
upperback -7.20518 0.903775 1.51344
thorax -4.90203 0.596611 2.30227
lowerneck -7.94055 -10.0563 -18.1313
upperneck 22.8866 -14.8978 15.6172
head 11.3204 -6.94267 6.73586
rclavicle 4.1546e-014 2.54444e-014
rhumerus -29.9855 6.05062 -93.5245
rradius 130.002
rwrist 36.1659
rhand 38.7376 10.1793
rfingers 7.12502
rthumb 61.3407 -2.11201
lclavicle 4.1546e-014 2.54444e-014
lhumerus -15.651 -19.5084 102.602
lradius 118.311
lwrist -15.129
lhand 38.26 45.5959
lfingers 7.12502
lthumb 60.9378 58.3525
rfemur 0.128011 -5.80478 18.1323
rtibia 19.8708
rfoot -21.7848 -25.6692
rtoes -8.45321
lfemur -13.2203 -23.9955 -20.1164
ltibia 25.6732
lfoot -14.6672 -9.42218
ltoes -9.01417
255
root 0.548663 17.1455 0.316813 4.7186 29.7389 2.84516
lowerback -4.58583 0.590067 -1.26685
upperback -7.21251 0.935471 1.48585
thorax -4.94451 0.609757 2.24865
lowerneck -7.95221 -10.0379 -18.1032
upperneck 22.8557 -14.8874 15.6833
head 11.3123 -6.92908 6.75778
rclavicle -5.98342e-014 -2.22639e-014
rhumerus -30.0159 6.03073 -93.6154
rradius 130.049
rwrist 36.1491
rhand 38.9404 10.3234
rfingers 7.12502
rthumb 61.5111 -1.76616
lclavicle -5.98342e-014 -2.22639e-014
lhumerus -15.6528 -19.4694 102.54
lradius 118.373
lwrist -15.1831
lhand 38.2515 45.4842
lfingers 7.12502
lthumb 60.9305 58.249
rfemur 0.054582 -5.81411 18.1114
rtibia 19.9576
rfoot -21.7898 -25.5651
rtoes -8.08632
lfemur -13.2689 -24.0111 -20.119
ltibia 25.7368
lfoot -14.6798 -9.35321
ltoes -8.71004
256
root 0.546589 17.1432 0.31176 4.68375 29.7358 2.79153
lowerback -4.48684 0.599805 -1.1664
upperback -7.22691 0.945992 1.46284
thorax -5.01357 0.609801 2.16712
lowerneck -8.00853 -10.0199 -18.0756
upperneck 22.8972 -14.8697 15.7122
head 11.3357 -6.91293 6.76741
rclavicle 2.74323e-014 0
rhumerus -30.0266 6.04618 -93.6918
rradius 130.044
rwrist 36.0902
rhand 38.952 10.3849
rfingers 7.12502
rthumb 61.5209 -1.693
lclavicle 2.74323e-014 0
lhumerus -15.6735 -19.4194 102.486
lradius 118.419
lwrist -15.1846
lhand 38.2308 45.3742
lfingers 7.12502
lthumb 60.9131 58.1589
rfemur -0.0261651 -5.88943 18.1485
rtibia 20.0847
rfoot -21.6944 -25.5516
rtoes -8.11464
lfemur -13.2974 -24.02 -20.0715
ltibia 25.7675
lfoot -14.6626 -9.32458
ltoes -8.81813
